<?xml version="1.0" ?><!DOCTYPE svg  PUBLIC '-//W3C//DTD SVG 1.1//EN'  'http://www.w3.org/Graphics/SVG/1.1/DTD/svg11.dtd'><svg enable-background="new 0 0 48 48" height="48px" id="Layer_3" version="1.1" viewBox="0 0 48 48" width="48px" xml:space="preserve" xmlns="http://www.w3.org/2000/svg" xmlns:xlink="http://www.w3.org/1999/xlink"><g><path d="M18.083,17.999V48h30V17.999H18.083z M44.083,44h-22V21.999h22V44z" fill="#241F20"/><path d="M29.823,36.339h6.387l1.924,5.666h2.485l-6.146-18.011h-2.807l-6.12,18.011h2.405L29.823,36.339z    M32.068,29.312c0.347-1.096,0.641-2.191,0.907-3.26h0.054c0.268,1.042,0.535,2.111,0.937,3.287l1.763,5.184h-5.425L32.068,29.312z   " fill="#241F20"/><polygon fill="#241F20" points="4,4 22,4 22,14.984 26,14.984 26,0 0,0 0,26 15,26 15,22 4,22  "/><path d="M20.103,9.867V7.684h-5.797l-0.678-2.186l-2.085,0.647l0.477,1.539h-6.35v2.184h3.279   c0.309,2.883,1.269,4.965,2.479,6.498c-1.348,1.005-3.192,1.893-5.758,2.433c0.958,1.704,0.958,1.704,0.958,1.704   s3.428-0.134,6.373-2.529c1.001,0.814,2.056,1.363,3.016,1.739v-2.437c-0.534-0.288-1.017-0.592-1.443-0.91   c1.21-1.533,2.17-3.615,2.479-6.498H20.103z M13,14.907c-2.102-2.467-1.98-5.04-1.98-5.04h3.96C14.98,9.867,15.101,12.44,13,14.907   z" fill="#241F20"/></g></svg>